<svg width="67" height="67" viewBox="0 0 67 67" fill="none" xmlns="http://www.w3.org/2000/svg">
<path d="M33.17 3.77279e-07C24.3718 0.00265202 15.935 3.49956 9.71466 9.72173C3.49437 15.9439 -3.99585e-07 24.3818 0 33.18C0 41.9799 3.49574 50.4193 9.7182 56.6418C15.9407 62.8643 24.3801 66.36 33.18 66.36C41.9799 66.3587 50.4188 62.8617 56.6403 56.6383C62.8619 50.4149 66.3563 41.9749 66.355 33.175C66.3537 24.3751 62.8567 15.9362 56.6333 9.71466C50.4099 3.49314 41.9699 -0.00132571 33.17 3.77279e-07ZM54.49 44.11C51.2225 46.5444 47.5585 48.395 43.66 49.58C42.7794 48.3961 42.0032 47.138 41.34 45.82C42.6097 45.3468 43.8345 44.7612 45 44.07C44.7 43.84 44.39 43.61 44.1 43.37C40.7152 44.9748 37.016 45.8073 33.27 45.8073C29.524 45.8073 25.8248 44.9748 22.44 43.37L21.56 44.07C22.7233 44.7558 23.9447 45.338 25.21 45.81C24.5417 47.1252 23.7657 48.3828 22.89 49.57C18.992 48.3886 15.3279 46.5414 12.06 44.11C11.1576 35.4808 13.4019 26.816 18.38 19.71C21.1933 18.4182 24.1661 17.5068 27.22 17C27.6464 17.7528 28.0336 18.5272 28.38 19.32C31.6257 18.84 34.9243 18.84 38.17 19.32C38.4988 18.526 38.8728 17.7514 39.29 17C42.3411 17.5157 45.3103 18.4337 48.12 19.73C53.111 26.8239 55.373 35.4813 54.49 44.11Z" fill="#FFFCFC"/>
<path d="M26.16 30.5701C25.0774 30.6345 24.0644 31.1253 23.3428 31.935C22.6213 32.7446 22.2499 33.8072 22.31 34.8901C22.2553 35.9706 22.6288 37.0291 23.3496 37.836C24.0703 38.6429 25.0802 39.133 26.16 39.2001C27.2399 39.1305 28.2488 38.6379 28.9677 37.8291C29.6866 37.0203 30.0575 35.9607 30 34.8801C30.0324 34.3446 29.9587 33.808 29.783 33.3011C29.6073 32.7942 29.3332 32.3271 28.9763 31.9265C28.6194 31.526 28.1869 31.1999 27.7036 30.9671C27.2202 30.7343 26.6957 30.5994 26.16 30.5701Z" fill="#FFFCFC"/>
<path d="M40.38 30.5701C39.2974 30.6345 38.2844 31.1253 37.5628 31.935C36.8413 32.7446 36.4699 33.8072 36.53 34.8901C36.4753 35.9706 36.8488 37.0291 37.5696 37.836C38.2903 38.6429 39.3002 39.133 40.38 39.2001C41.4608 39.1331 42.4713 38.6412 43.1907 37.8318C43.9102 37.0224 44.2802 35.9613 44.22 34.8801C44.2538 34.3443 44.181 33.8071 44.0058 33.2997C43.8306 32.7922 43.5565 32.3246 43.1994 31.9237C42.8423 31.5229 42.4092 31.1969 41.9253 30.9645C41.4413 30.7322 40.9161 30.5981 40.38 30.5701Z" fill="#FFFCFC"/>
</svg>
