<svg width="67" height="67" viewBox="0 0 67 67" fill="none" xmlns="http://www.w3.org/2000/svg">
<path d="M33.27 0C26.6898 0 20.2574 1.95125 14.7862 5.60701C9.31497 9.26276 5.05067 14.4588 2.53254 20.5381C0.0144155 26.6174 -0.644442 33.3069 0.639289 39.7607C1.92302 46.2144 5.09168 52.1426 9.74457 56.7954C14.3975 61.4483 20.3256 64.617 26.7794 65.9007C33.2331 67.1845 39.9226 66.5256 46.0019 64.0075C52.0812 61.4893 57.2773 57.225 60.933 51.7538C64.5888 46.2826 66.54 39.8502 66.54 33.27C66.5374 24.4471 63.0313 15.9862 56.7925 9.74749C50.5538 3.50872 42.093 0.00265073 33.27 0ZM55.15 19.7C55.1546 19.9496 55.0734 20.1931 54.92 20.39C53.9386 21.7535 52.7666 22.9692 51.44 24C51.24 24.14 50.91 24.3 50.91 24.58C50.91 31.76 49.08 38.94 43.84 44.14C37.17 50.77 27.17 52.57 18.28 50.14C16.5656 49.6548 14.9091 48.9842 13.34 48.14C12.82 47.86 12.34 47.56 11.8 47.23C11.67 47.13 11.58 47.03 11.69 46.96C11.8 46.89 11.88 46.9 12.28 46.96C14.7838 47.1787 17.3052 46.8512 19.67 46C20.96 45.55 23.74 44.64 24.54 43.42C24.54 43.42 24.54 43.42 24.6 43.36C24.27 43.28 23.95 43.28 23.6 43.23C21.18 42.54 17.96 41.33 16.47 37.23C16.37 36.99 16.47 36.87 16.71 36.91C17.841 37.0657 18.9901 37.0319 20.11 36.81C19.7311 36.7512 19.3592 36.654 19 36.52C17.4914 35.9083 16.172 34.9077 15.1759 33.6201C14.1799 32.3325 13.543 30.8039 13.33 29.19C13.2855 28.8586 13.2688 28.5241 13.28 28.19C13.28 27.96 13.4 27.88 13.61 28.01C14.6852 28.5705 15.8616 28.9105 17.07 29.01C16.6941 28.6943 16.3369 28.357 16 28C13.36 25.51 12.34 20.43 14.45 17.26C14.62 17.01 14.73 17.01 14.94 17.26C19.76 22.76 25.7 25.32 32.87 26.39C33.06 26.39 33.07 26.39 33.05 26.18C32.8347 24.9361 32.8653 23.6621 33.14 22.43C33.4628 21.1343 34.0672 19.9257 34.91 18.89C35.7344 17.8844 36.7552 17.0576 37.91 16.46C39.0559 15.8798 40.3081 15.5395 41.59 15.46C42.9109 15.3777 44.2334 15.593 45.46 16.09C46.382 16.4657 47.2365 16.9893 47.99 17.64C48.1523 17.7808 48.3028 17.9346 48.44 18.1C48.4837 18.15 48.5411 18.1861 48.605 18.2039C48.669 18.2217 48.7368 18.2203 48.8 18.2C50.6166 17.7535 52.3702 17.0816 54.02 16.2C54.0553 16.1807 54.0948 16.1707 54.135 16.1707C54.1752 16.1707 54.2147 16.1807 54.25 16.2C54.33 16.26 54.25 16.36 54.25 16.43C53.912 17.3758 53.396 18.2482 52.73 19C52.32 19.52 51.28 20.8 50.57 20.92C52.0942 20.6899 53.5829 20.2665 55 19.66C55.18 19.58 55.18 19.54 55.18 19.66L55.15 19.7Z" fill="white"/>
</svg>
